#!OML:ASF H:\ManfredObstacles\Project 1\Capture day 2\Session 1\male.ASF
:FULLY-SPECIFIED
:DEGREES
182
root 1.73065 16.0362 -19.8414 -172.223 4.06675 174.068
lowerback -4.09831 -5.81671 -8.87714
upperback 0.175176 -7.27001 0.0984922
thorax 3.59414 -3.75267 4.44555
lowerneck -27.4471 2.43023 7.6175
upperneck 46.4048 9.62394 -5.59538
head 29.2193 5.68177 -1.21255
rclavicle -1.40547e-014 1.57785e-014
rhumerus -72.9524 5.61279 -80.6239
rradius 80.1284
rwrist 5.54168
rhand -9.87806 -1.82131
rfingers 7.12502
rthumb 16.1011 -31.1724
lclavicle -1.40547e-014 1.57785e-014
lhumerus -59.0834 -31.3796 103.099
lradius 91.4232
lwrist -21.897
lhand -12.0743 0.830048
lfingers 7.12502
lthumb 13.9854 30.3396
rfemur -35.3437 2.91932 17.3426
rtibia 42.408
rfoot 1.85259 -11.2532
rtoes -21.4801
lfemur -0.179417 0.654251 -28.2577
ltibia 50.9813
lfoot 32.4687 7.27508
ltoes 1.09297
183
root 1.75668 15.9508 -20.104 -172.445 4.02081 174.441
lowerback -3.68894 -5.50178 -8.54684
upperback 0.244115 -6.91491 0.165366
thorax 3.35202 -3.57006 4.41197
lowerneck -27.8343 2.37761 7.45938
upperneck 46.2074 9.27279 -5.44504
head 28.9882 5.50115 -1.20359
rclavicle 7.90728e-014 3.8266e-015
rhumerus -71.9571 5.78816 -81.2522
rradius 80.3383
rwrist 5.65498
rhand -10.2098 -1.94187
rfingers 7.12502
rthumb 15.7816 -31.3185
lclavicle 7.90728e-014 3.8266e-015
lhumerus -59.5941 -30.4784 103.099
lradius 91.0081
lwrist -22.08
lhand -12.1078 0.801691
lfingers 7.12502
lthumb 13.9531 30.3135
rfemur -34.2789 3.09387 17.9184
rtibia 43.351
rfoot -0.350346 -12.1307
rtoes -21.6665
lfemur -1.20547 0.958702 -27.5591
ltibia 53.795
lfoot 31.0185 8.35894
ltoes 0.689059
184
root 1.77938 15.8678 -20.3632 -172.68 4.02405 174.911
lowerback -3.23372 -5.14001 -8.10014
upperback 0.346184 -6.50282 0.246035
thorax 3.10177 -3.35854 4.33101
lowerneck -28.24 2.32887 7.30283
upperneck 45.9677 8.89723 -5.29254
head 28.7083 5.3067 -1.20424
rclavicle -5.35973e-014 1.01877e-014
rhumerus -70.7842 5.96079 -81.924
rradius 80.4831
rwrist 5.73617
rhand -10.5863 -2.1171
rfingers 7.12502
rthumb 15.419 -31.522
lclavicle -5.35973e-014 1.01877e-014
lhumerus -59.8982 -29.5092 102.962
lradius 90.4404
lwrist -22.2277
lhand -12.1839 0.896137
lfingers 7.12502
lthumb 13.8798 30.413
rfemur -33.2368 3.21602 18.6228
rtibia 44.2648
rfoot -2.33643 -12.9961
rtoes -21.5892
lfemur -2.29292 1.2608 -26.7732
ltibia 56.6156
lfoot 29.6216 9.18472
ltoes 0.219513
185
root 1.79822 15.788 -20.618 -172.917 4.10095 175.497
lowerback -2.73971 -4.72728 -7.51461
upperback 0.480973 -6.026 0.354071
thorax 2.84787 -3.11402 4.20149
lowerneck -28.6487 2.28302 7.14607
upperneck 45.6746 8.50262 -5.15034
head 28.3633 5.09813 -1.22085
rclavicle -8.27006e-014 1.04362e-014
rhumerus -69.394 6.14872 -82.6212
rradius 80.5252
rwrist 5.82206
rhand -10.9878 -2.31264
rfingers 7.12502
rthumb 15.0323 -31.7469
lclavicle -8.27006e-014 1.04362e-014
lhumerus -59.9744 -28.4605 102.683
lradius 89.7064
lwrist -22.3528
lhand -12.2836 1.14596
lfingers 7.12502
lthumb 13.7837 30.6693
rfemur -32.2364 3.32525 19.4547
rtibia 45.1286
rfoot -4.07995 -13.7859
rtoes -21.4857
lfemur -3.4704 1.58943 -25.8814
ltibia 59.4482
lfoot 28.2749 9.78327
ltoes -0.280723
186
root 1.8125 15.7098 -20.8669 -173.189 4.2415 176.178
lowerback -2.16981 -4.27518 -6.81134
upperback 0.648896 -5.49745 0.484394
thorax 2.57702 -2.84206 4.02836
lowerneck -29.0658 2.23006 6.96704
upperneck 45.3471 8.08877 -4.9967
head 27.9834 4.8757 -1.23368
rclavicle 1.0256e-014 1.78906e-014
rhumerus -67.7835 6.37055 -83.3338
rradius 80.4614
rwrist 5.95418
rhand -11.3762 -2.5238
rfingers 7.12502
rthumb 14.658 -31.9857
lclavicle 1.0256e-014 1.78906e-014
lhumerus -59.8597 -27.3278 102.29
lradius 88.8048
lwrist -22.4394
lhand -12.4334 1.60949
lfingers 7.12502
lthumb 13.6393 31.1426
rfemur -31.21 3.40085 20.3833
rtibia 45.9431
rfoot -5.57017 -14.4952
rtoes -21.5338
lfemur -4.7036 1.94546 -24.9105
ltibia 62.2908
lfoot 26.9479 10.2258
ltoes -0.863461
187
root 1.82275 15.6333 -21.1096 -173.49 4.4326 176.898
lowerback -1.53657 -3.79815 -6.04679
upperback 0.837524 -4.92861 0.625857
thorax 2.29249 -2.54797 3.82668
lowerneck -29.4535 2.16849 6.77937
upperneck 44.9816 7.6616 -4.84538
head 27.5546 4.64494 -1.25227
rclavicle -2.49972e-014 7.55382e-015
rhumerus -65.9808 6.63684 -84.0561
rradius 80.288
rwrist 6.15416
rhand -11.7568 -2.70576
rfingers 7.12502
rthumb 14.2914 -32.194
lclavicle -2.49972e-014 7.55382e-015
lhumerus -59.5992 -26.1191 101.802
lradius 87.7573
lwrist -22.474
lhand -12.5858 2.31778
lfingers 7.12502
lthumb 13.4924 31.8607
rfemur -30.1597 3.44997 21.3339
rtibia 46.719
rfoot -6.86038 -15.0872
rtoes -21.7435
lfemur -5.99667 2.32103 -23.9133
ltibia 65.1181
lfoot 25.6394 10.6164
ltoes -1.48302
188
root 1.82981 15.5597 -21.3458 -173.816 4.63721 177.587
lowerback -0.854861 -3.32929 -5.30535
upperback 1.06053 -4.35657 0.763075
thorax 2.02867 -2.25183 3.62174
lowerneck -29.8653 2.0996 6.55067
upperneck 44.5906 7.22469 -4.6634
head 27.1188 4.40259 -1.2476
rclavicle -1.41883e-014 -3.8763e-015
rhumerus -63.9542 6.97748 -84.7963
rradius 80.0142
rwrist 6.46427
rhand -12.098 -2.83862
rfingers 7.12502
rthumb 13.9626 -32.3498
lclavicle -1.41883e-014 -3.8763e-015
lhumerus -59.1984 -24.8302 101.199
lradius 86.6255
lwrist -22.4805
lhand -12.7214 3.29956
lfingers 7.12502
lthumb 13.3618 32.8511
rfemur -29.0977 3.47351 22.2145
rtibia 47.4764
rfoot -7.9855 -15.5745
rtoes -22.1442
lfemur -7.34763 2.67534 -22.964
ltibia 67.891
lfoot 24.3385 11.0413
ltoes -2.12773
